HIERARCHY
ROOT Hips
{
	OFFSET 0.000000 0.000000 0.000000 
	CHANNELS 6 Xposition Yposition Zposition Zrotation Yrotation Xrotation
	JOINT LeftUpLeg
	{
		OFFSET 1.363060 -1.794630 0.839290 
		CHANNELS 3 Zrotation Yrotation Xrotation
		JOINT LeftLeg
		{
			OFFSET 2.448110 -6.726130 0.000000 
			CHANNELS 3 Zrotation Yrotation Xrotation
			JOINT LeftFoot
			{
				OFFSET 2.562200 -7.039590 0.000000 
				CHANNELS 3 Zrotation Yrotation Xrotation
				JOINT LeftToeBase
				{
					OFFSET 0.157640 -0.433110 2.322550 
					CHANNELS 3 Zrotation Yrotation Xrotation
					End Site
					{
						OFFSET 0.000000 0.000000 0.000000 
					}
				}
			}
		}
	}
	JOINT RightUpLeg
	{
		OFFSET -1.305520 -1.794630 0.839290 
		CHANNELS 3 Zrotation Yrotation Xrotation
		JOINT RightLeg
		{
			OFFSET -2.542530 -6.985550 0.000000 
			CHANNELS 3 Zrotation Yrotation Xrotation
			JOINT RightFoot
			{
				OFFSET -2.568260 -7.056230 0.000000 
				CHANNELS 3 Zrotation Yrotation Xrotation
				JOINT RightToeBase
				{
					OFFSET -0.164730 -0.452590 2.363150 
					CHANNELS 3 Zrotation Yrotation Xrotation
					End Site
					{
						OFFSET 0.000000 0.000000 0.000000 
					}
				}
			}
		}
	}
	JOINT Spine
	{
		OFFSET 0.028270 2.035590 -0.193380 
		CHANNELS 3 Zrotation Yrotation Xrotation
		JOINT Spine1
		{
			OFFSET 0.056720 2.048850 -0.042750 
			CHANNELS 3 Zrotation Yrotation Xrotation
			JOINT Neck1
			{
				OFFSET -0.054170 1.746240 0.172020 
				CHANNELS 3 Zrotation Yrotation Xrotation
				JOINT Head
				{
					OFFSET 0.104070 1.761360 -0.123970 
					CHANNELS 3 Zrotation Yrotation Xrotation
					End Site
					{
						OFFSET 0.000000 0.000000 0.000000 
					}
				}
			}
			JOINT LeftArm
			{
				OFFSET 3.362410 1.200890 -0.311210 
				CHANNELS 3 Zrotation Yrotation Xrotation
				JOINT LeftForeArm
				{
					OFFSET 4.983000 -0.000000 -0.000000 
					CHANNELS 3 Zrotation Yrotation Xrotation
					JOINT LeftHand
					{
						OFFSET 3.483560 -0.000000 -0.000000 
						CHANNELS 3 Zrotation Yrotation Xrotation
						JOINT LeftHandIndex1
						{
							OFFSET 0.715260 -0.000000 -0.000000 
							CHANNELS 3 Zrotation Yrotation Xrotation
							End Site
							{
								OFFSET 0.000000 0.000000 0.000000 
							}
						}
					}
				}
			}
			JOINT RightArm
			{
				OFFSET -3.136600 1.374050 -0.404650 
				CHANNELS 3 Zrotation Yrotation Xrotation
				JOINT RightForeArm
				{
					OFFSET -5.241900 -0.000000 -0.000000 
					CHANNELS 3 Zrotation Yrotation Xrotation
					JOINT RightHand
					{
						OFFSET -3.444170 -0.000000 -0.000000 
						CHANNELS 3 Zrotation Yrotation Xrotation
						JOINT RightHandIndex1
						{
							OFFSET -0.622530 -0.000000 -0.000000 
							CHANNELS 3 Zrotation Yrotation Xrotation
							End Site
							{
								OFFSET 0.000000 0.000000 0.000000 
							}
						}
					}
				}
			}
		}
	}
}
MOTION
Frames: 7
Frame Time: 0.041667
10.761592 18.029210 -43.066920 -5.050172 -75.477383 5.786237 -7.729681 -25.772866 -16.823239 -1.076904 11.164780 32.337943 4.927164 -25.525477 33.954939 2.723300 10.233000 29.734600 27.490815 15.166640 -0.489114 1.955205 -7.664932 24.995309 5.359541 -19.295625 -12.929460 -0.095900 1.997100 -5.497700 2.609460 0.795574 2.846720 -5.236907 -0.102365 -12.941521 1.059902 23.587448 11.732331 -2.234900 12.237200 5.699800 -86.020304 -4.955139 22.460243 23.198697 -22.993161 -5.666491 1.731728 0.614993 12.500252 -7.125000 0.000000 0.000000 80.909541 -21.653518 26.840230 -21.877248 24.675757 -6.323358 1.289905 0.080531 20.715415 7.125000 0.000000 0.000000 
10.793953 18.025195 -43.119830 -4.544651 -74.265848 5.148089 -7.972865 -24.900345 -17.334195 -1.098114 11.226880 32.415934 4.928007 -25.202706 34.337262 2.646300 10.099100 29.298300 27.766398 15.052241 -0.427829 1.966697 -7.673339 25.028279 5.600383 -20.130194 -13.561144 -0.035100 1.209000 -3.323900 2.515764 0.735718 2.945766 -5.307745 -0.135394 -13.064724 1.091801 23.271259 11.852959 -2.213800 12.076500 5.727300 -85.995971 -5.389008 21.328861 22.640483 -22.339227 -5.387115 1.734661 0.674486 12.976408 -7.125000 0.000000 0.000000 80.706686 -21.637814 26.767636 -21.971560 24.777492 -6.381038 1.282072 0.033802 22.081464 7.125000 0.000000 0.000000 
10.819109 18.029210 -43.170615 -3.824513 -73.056396 5.051308 -7.975938 -25.650557 -17.908732 -1.025182 11.347099 32.438241 4.958220 -23.966865 33.268684 2.627900 10.066800 29.193300 27.677946 15.099290 -1.162773 2.015526 -7.705082 24.913908 5.928344 -21.121781 -13.938478 -0.013000 0.736100 -2.022800 2.558645 0.616204 2.645711 -5.226303 -0.176585 -12.772116 1.013674 23.042477 11.939600 -2.219600 11.952900 5.744800 -86.314794 -5.280982 19.849096 22.408001 -22.051726 -5.257638 1.702963 0.743015 13.028314 -7.125000 0.000000 0.000000 80.309289 -21.610805 26.828435 -22.092248 24.890378 -6.441614 1.276458 -0.011623 23.143640 7.125000 0.000000 0.000000 
10.850643 18.033935 -43.224942 -3.231242 -71.871470 4.250164 -8.094143 -25.385327 -18.100519 -1.075636 11.366552 32.427577 4.965528 -22.226376 35.236347 4.235700 12.467600 37.406800 27.811017 14.787311 -1.108729 2.036907 -7.689485 24.908687 6.116035 -21.821840 -14.698965 -0.002600 0.328800 -0.903500 2.672862 0.443708 2.747764 -5.074619 -0.234293 -13.000743 1.012452 22.874863 12.041547 -2.200100 11.864900 5.753900 -86.791153 -5.126081 18.044125 22.247885 -21.882585 -5.170716 1.687572 0.787043 13.481633 -7.125000 0.000000 0.000000 79.911249 -21.536521 26.820704 -22.201571 25.003455 -6.475763 1.271002 -0.048603 23.963053 7.125000 0.000000 0.000000 
10.878869 18.038659 -43.277853 -2.917163 -70.721634 3.675078 -8.585637 -24.483087 -18.452994 -0.929089 11.506239 32.763983 4.944333 -24.030872 31.734711 1.769000 8.367500 23.835900 28.019980 14.490060 -1.008391 2.053206 -7.681661 24.957884 6.135762 -22.101123 -15.564886 -0.007100 -0.543900 1.494500 2.567903 0.367769 2.896407 -5.133434 -0.275267 -13.198624 1.195941 22.565037 12.201218 -2.121800 11.713400 5.758200 -86.665479 -5.527153 16.788827 21.758676 -21.332172 -4.952423 1.718682 0.818336 14.146536 -7.125000 0.000000 0.000000 79.791105 -21.511452 26.626634 -22.394002 25.217658 -6.548527 1.262313 -0.070397 24.457395 7.125000 0.000000 0.000000 
10.914300 18.027085 -43.334779 -2.971421 -69.543634 3.716796 -8.445590 -24.085779 -18.835470 -1.042127 11.500721 32.607578 4.967579 -21.189850 34.979037 4.564100 12.875400 38.903900 28.333106 14.277406 -1.154163 2.081104 -7.687003 24.957631 6.142269 -22.316511 -16.213251 -0.067500 -1.676000 4.611000 2.435495 0.324762 2.869808 -5.271353 -0.318448 -13.332117 1.161589 22.233250 12.317789 -2.140800 11.547700 5.800800 -86.767139 -5.356215 15.535211 21.637869 -21.227220 -4.897296 1.733249 0.821979 14.946012 -7.125000 0.000000 0.000000 79.874000 -21.516302 26.403847 -22.654646 25.510726 -6.656837 1.250867 -0.078834 24.537251 7.125000 0.000000 0.000000 
10.939693 18.023778 -43.385209 -3.021785 -68.399647 4.079424 -8.756788 -23.163213 -19.611198 -0.843546 11.693882 32.920932 5.028731 -23.654533 29.634138 1.162300 6.844300 19.254800 28.543611 14.304597 -1.585563 2.115165 -7.726287 24.959459 6.219115 -22.718632 -16.837572 -0.189200 -2.801600 7.727000 2.212215 0.382123 2.723635 -5.448205 -0.316216 -13.172999 1.021926 21.828139 12.411931 -2.222400 11.349000 5.876800 -86.666215 -5.353517 14.885698 21.397239 -20.949936 -4.784054 1.743530 0.829892 15.237650 -7.125000 0.000000 0.000000 80.212497 -21.506334 25.855605 -22.914999 25.797051 -6.751755 1.242483 -0.081867 24.603872 7.125000 0.000000 0.000000 
